<svg id="Layer_1" viewBox="-469 271 20 20"><style>.st0{fill:#828282}</style><path class="st0" d="M-454.9 277.7c-.1-.1-.2-.5-.3-.6 0 0 0-.1-.1-.2v-.1c0-.1 0-.1-.1-.2 0-.1-.1-.3-.1-.4-.1-.2-.2-.5-.3-.7l-.3-.6c-.2-.2-.4-.4-.7-.4-.1 0-.3.1-.3.2-.1.1-.2.3-.3.4-.1.1-.2.3-.3.4-.1.1-.2.1-.3.1-.1 0-.3-.2-.4-.3-.1-.1-.3-.3-.4-.3-.2-.1-.3-.1-.5 0s-.3.4-.3.6c0-.1 0-.2 0 0-.1.6-.2 1.3-.4 1.9-.1.2-.3.6-.3.7 0 .1-.2.2-.4.3-.3 0-1.2.9 2.5.9 3.2 0 3.5-1.1 3.6-1.5-.1-.1-.1-.1-.3-.2.1 0 0 0 0 0zM-456.8 283.9c-.4 0-.8.2-1.1.3-.5.2-.9.4-1.4.5-.5.1-1 .2-1.5.2h-.2s-.1.1-.1.2l-.2.2c.3.2.6.3 1 .3.7.1 1.5.1 2.2-.1.4-.1.7-.2 1.1-.4.2-.1.3-.2.5-.3.1-.1.3-.3.3-.4.1-.2.1-.3-.1-.5h-.5z"/><path class="st0" d="M-450.7 279.7c-.1-.7-.3-1.4-.6-2-.4-1-1-1.9-1.8-2.6-1.5-1.5-3.6-2.3-5.7-2.3-4.5 0-8.2 3.7-8.2 8.2v.1h-.2c-.1 0-.3 0-.4.1-.2.1-.3.3-.3.5 0 .6.5 1.2.9 1.5.1.1.2.1.2.1 1 3.4 4.2 5.9 7.9 5.9 2.3 0 4.4-.9 6-2.6 1.5-1.6 2.4-3.9 2.3-6.1-.1-.2-.1-.5-.1-.8zm-15.9 1.8h-.2c-.2 0-.4.1-.6.3-.1-.1-.1-.3.1-.4.1-.1.3-.1.5 0 .1 0 .2 0 .3.1-.1-.1-.1 0-.1 0zm13.9.2c-.2.8-.7 1.5-1.2 2.1-.3.3-.5.6-.8.9-.3.2-.5.5-.8.7-.6.4-1 1.1-1 1.8v.1h-.1c-.2 0-.4 0-.6.1h-1.3c-.6 0-1.3-.1-1.9-.4-.3-.1-.6-.3-.8-.5-.2-.2-.3-.3-.4-.6v-.2c0-.2.2-.3.3-.4.1-.1.1-.2.2-.2 0 0 .1-.1.1-.2h-.6c-.9-.1-1.7-.4-2.5-.8-.4-.2-.8-.4-1.1-.6-.1-.1-.2-.1-.2-.2l-.1-.1v-.1-.1-.2c.1-.4.1-.7 0-1.1 0-.1 0-.1-.1-.2l-.1-.1.1-.1.1-.1c.2-.1.4-.3.5-.4v.4c.1.5.3.9.8 1.1.4.2 1 .2 1.5.1.7-.1 1.4-.5 1.8-1.1 0-.1.1-.1.1-.2v-.1H-460.5v.1c0 .1.1.3.1.4.2.4.4.8.8 1.1.4.3.8.5 1.3.6.5.2 1.1.2 1.5-.2.4-.4.6-.9.7-1.4v-.2-.1h.9c.5 0 1 0 1.6-.1h1c0 .2-.1.3-.1.5zm0-1.6c-.6 0-1.3.1-1.9.1-.4 0-.7.1-1.1.1h-.3c-.6-.1-1.2-.2-1.7-.2l-2.1-.3c-.4 0-.7-.1-1.1-.2-.6-.1-1.2-.2-1.9-.3.1-.1.2-.1.3-.2.1 0 .2-.1.2-.2l.3-.6c.2-.4.3-.9.5-1.3l.3-.6c.1-.1.1-.1.2-.1s.1.1.2.2l.3.9c.1-.1.1-.2.2-.4.2-.5.3-1 .4-1.5 0-.2.1-.4.1-.6 0-.1 0-.3.1-.4 0-.2.2-.4.4-.5.2-.1.4 0 .5.1.2.1.3.2.4.3.1.1.2.2.4.3.3.1.5-.2.6-.4.2-.2.4-.6.7-.7.2-.1.5 0 .7.2.1.1.2.3.3.4.1.2.2.4.3.7.2.4.3.9.5 1.3.1.2.1.3.2.5 0 .1 0 .2.1.2 0 .1.2.1.2.2l.3-.6c.1-.1.2-.3.3-.3.2.1.2.4.3.5.1.3.1.7.2 1 0 .2 0 .4.1.5.1.2.2.3.3.5.1.2.2.3.3.5.1.2.1.4.1.6-.1.3-.2.3-.2.3z"/></svg>