<svg width="706.666" height="926.668" viewBox="0 0 187 245" shape-rendering="geometricPrecision" text-rendering="geometricPrecision" image-rendering="optimizeQuality" fill-rule="evenodd" clip-rule="evenodd"><defs><style>.fil0,.fil1{fill:#b3b0af;fill-rule:nonzero}.fil1{fill:#514e4c}</style></defs><g id="Layer_x0020_1"><path class="fil0" d="M144 245c-27 0-44-11-53-25 8 3 17 5 29 5h1c17 0 35-7 42-16l-4-12c5-1 11-3 16-5l12 37c-7 9-25 16-41 16h-2zm-5-187h-24V25h24v33zm-9 119c-7 0-15-2-15-16v-58h39V78h25v46h-40v52c-3 0-6 1-9 1z"/><path class="fil1" d="M156 208c-7 7-22 12-36 12h-1c-47 0-59-35-59-56v-64c0-1-1-1-1-1H36l-1-1V68h1c24-10 37-28 41-57 0-2 1-2 1-2h30c1 0 1 1 1 1v52l1 1h38s1 0 1 1v34l-1 1h-38s-1 0-1 1v61c0 13 7 20 20 20 5 0 11-1 17-3 0 0 1 0 1 1l9 28v1zM118 0H52c-4 0-10 3-10 10-4 26-16 42-39 50l-2 1c-1 0-1 0-1 1v45c0 1 0 1 1 1h23v56c0 44 31 66 88 66 23 0 46-9 54-19l1-2-14-42h-33l-1-1v-57c0-1 0-1 1-1h37c1 0 1 0 1-1V54s0-1-1-1h-37c-1 0-1 0-1-1V1c0-1-1-1-1-1z"/></g></svg>